PathFileType	4	(X/Y/Z)	motion_data.trc
DataRate	CameraRate	NumFrames	NumMarkers	Units	OrigDataRate	OrigDataStartFrame	OrigNumFrames
30.0	30.0	126	3	mm	30.0	1899	2170
Frame#	Time	r_acromion			r_humerus_epicondyle			r_radius_styloid		
		X1	Y1	Z1	X2	Y2	Z2	X3	Y3	Z3

1899	63.2667	307.6079	546.3128	-82.2919	393.5258	491.4901	-107.2887	459.4272	537.8153	-72.0402
1900	63.3000	305.6993	547.5252	-86.8502	404.0957	491.9947	-110.2631	468.4660	539.3554	-80.5590
1901	63.3333	305.4232	548.3046	-88.8742	408.4769	495.5932	-118.3486	476.3519	544.6529	-105.0986
1902	63.3667	307.2590	548.5543	-87.6253	407.5239	501.3599	-124.4954	481.2092	553.6401	-124.9062
1903	63.4000	309.7351	548.7185	-85.6476	406.2748	506.7287	-125.4604	483.7219	562.6864	-128.4923
1904	63.4333	310.7724	549.1734	-85.8274	407.6768	509.8045	-123.7812	484.9401	567.9749	-121.2922
1905	63.4667	309.6100	549.8116	-87.8684	409.8392	510.2632	-123.1452	484.5189	568.5744	-115.6687
1906	63.5000	307.2338	550.2700	-88.8858	408.8865	508.3632	-124.3725	481.6122	565.8138	-117.9777
1907	63.5333	305.1666	550.4096	-87.2214	403.2070	504.3969	-125.9120	476.7831	561.0413	-124.6663
1908	63.5667	304.1002	550.4645	-84.4426	394.6447	499.5565	-126.2623	472.2227	555.0820	-127.8224
1909	63.6000	303.5956	550.6974	-83.3202	386.3857	496.0643	-125.0489	469.9218	548.9843	-123.1960
1910	63.6333	302.8634	550.9473	-84.5750	380.5578	495.2183	-122.5681	469.9275	543.9227	-113.2582
1911	63.6667	301.6303	550.6514	-86.0695	377.6111	495.6585	-119.0521	470.5469	540.2950	-103.1621
1912	63.7000	300.1863	549.4697	-85.0026	376.8270	494.5503	-114.2743	470.0683	537.6080	-94.5301
1913	63.7333	298.8761	547.8162	-80.6885	376.9336	490.5987	-107.7665	468.1695	535.4380	-84.3579
1914	63.7667	297.8838	546.5397	-75.3038	376.7931	485.3999	-100.0124	465.8646	534.0788	-70.8771
1915	63.8000	297.3620	546.0819	-72.0072	375.9052	481.8461	-93.6427	464.3447	534.0000	-59.3210
1916	63.8333	297.3570	546.1558	-72.1694	374.3406	481.6529	-92.1693	463.9240	535.0423	-58.5423
1917	63.8667	297.5956	546.2123	-74.3998	372.5345	484.3563	-96.3919	464.0408	536.5828	-70.4972
1918	63.9000	297.6663	545.9716	-76.4139	371.2137	488.1027	-103.0302	464.1675	538.3117	-86.3343
1919	63.9333	297.5259	545.5040	-77.5350	371.0361	491.1270	-108.0622	464.5241	540.4051	-95.5662
1920	63.9667	297.6279	545.0607	-78.7473	372.0188	492.7144	-110.4524	465.7813	542.9558	-96.5320
1921	64.0000	298.4406	544.9754	-80.5487	373.4336	493.1935	-111.6785	468.2348	545.5886	-95.3443
1922	64.0333	300.0216	545.6029	-81.9178	374.3267	493.4036	-112.9243	471.5238	547.7439	-97.2075
1923	64.0667	302.1289	547.0698	-81.9014	374.2603	494.1128	-114.0933	475.0706	549.1676	-101.7717
1924	64.1000	304.4152	548.9053	-81.3672	373.8728	495.3825	-114.8176	478.4931	550.0189	-105.4962
1925	64.1333	306.3643	550.0739	-82.2245	374.6644	496.1643	-115.1434	481.6100	550.4815	-105.7006
1926	64.1667	307.4944	549.6821	-85.1503	377.4849	494.8435	-115.3540	484.3297	550.1717	-102.4002
1927	64.2000	307.9570	547.6661	-89.0524	380.7739	490.5667	-115.9342	486.4656	547.8466	-98.1116
1928	64.2333	308.5792	544.6042	-92.8671	381.1576	484.0184	-117.5259	487.2900	542.0203	-96.0649
1929	64.2667	309.9352	541.1519	-96.6750	376.8610	476.9833	-119.9111	485.4077	532.7147	-96.9383
1930	64.3000	311.5728	538.2845	-100.2662	370.0583	471.6025	-121.0224	479.8547	523.0552	-97.0634
1931	64.3333	312.4817	537.7153	-101.6576	364.8219	469.7517	-118.3333	471.7827	517.9552	-91.7453
1932	64.3667	312.2731	540.3442	-98.5518	363.1120	471.4851	-111.9123	464.4560	519.1851	-81.2002
1933	64.4000	311.6347	543.5275	-91.2653	363.6025	473.4409	-105.1090	460.5230	521.9341	-71.5521
1934	64.4333	311.3850	542.4914	-83.2040	364.0541	471.6101	-101.4880	459.1779	519.9931	-68.6405
1935	64.4667	311.0194	537.9990	-78.1395	364.1101	468.8985	-101.7074	457.4354	517.2377	-71.7598
1936	64.5000	308.7323	540.3487	-77.2744	366.0815	476.7481	-103.6706	455.4985	528.9736	-74.6961
1937	64.5333	304.0864	556.5034	-78.5098	373.3417	499.9109	-104.7147	459.0174	560.2807	-72.7528
1938	64.5667	301.2023	569.0689	-77.7303	386.4458	517.1379	-102.9384	471.1398	581.0302	-67.9194
1939	64.6000	307.6835	540.4412	-71.3217	398.9605	491.1376	-97.1717	480.3608	541.9433	-66.2055
1940	64.6333	328.1155	452.8101	-59.3193	399.3663	411.4950	-87.1363	462.6760	433.3744	-69.8763
1941	64.6667	358.8366	336.1198	-46.4213	382.2927	315.8251	-73.9965	405.2876	310.8355	-74.0249
1942	64.7000	390.0797	238.5493	-37.6718	357.8007	248.6871	-59.5728	329.3048	234.9468	-71.5761
1943	64.7333	410.4590	180.5950	-33.3663	343.1605	213.8406	-45.9372	280.7411	205.2701	-61.1360
1944	64.7667	407.7419	163.2738	-32.7015	343.2600	195.6685	-39.4609	291.9818	191.4751	-51.8250
1945	64.8000	375.4985	203.0658	-40.8754	346.3272	209.5246	-51.7227	352.4385	206.0006	-59.5537
1946	64.8333	333.1085	311.2114	-60.8756	345.7001	283.3917	-83.2598	420.3773	285.4534	-88.4736
1947	64.8667	331.5177	440.6771	-75.4489	359.0038	392.8239	-104.9237	462.1425	406.1746	-112.1358
1948	64.9000	411.4412	506.2524	-54.3983	409.6944	464.2632	-75.8497	474.4520	482.8257	-89.3238
1949	64.9333	546.6194	475.7482	7.4034	486.7056	457.0051	6.2839	470.5991	467.2874	-13.2208
1950	64.9667	649.2441	408.2104	70.3670	539.4995	408.4704	86.2039	458.6045	405.2021	65.1867
1951	65.0000	646.5880	386.4633	83.5254	525.6005	385.4738	98.3266	441.1183	377.1778	79.1934
1952	65.0333	546.2551	433.7695	35.6707	454.8109	413.3345	30.7270	425.5154	411.9030	11.5190
1953	65.0667	421.9195	506.9734	-35.0257	375.3894	463.1184	-65.4698	418.5651	470.8161	-90.2252
1954	65.1000	342.6481	553.5537	-81.0302	323.0728	493.2512	-127.9661	414.2979	501.1318	-161.5916
1955	65.1333	322.2979	559.5331	-87.0527	298.5080	491.0676	-137.2503	401.6493	489.4692	-177.3911
1956	65.1667	331.0623	546.2184	-71.4624	291.1900	476.2589	-119.6481	384.5488	465.6919	-160.4432
1957	65.2000	338.7059	537.0420	-58.1184	301.6075	472.9349	-108.9807	380.9714	463.4783	-146.5504
1958	65.2333	336.7843	538.1136	-55.7914	328.4651	485.0623	-115.3087	397.9883	485.0315	-150.6134
1959	65.2667	330.0268	544.3617	-58.8688	352.0815	498.8479	-126.2539	418.0659	505.4847	-162.9800
1960	65.3000	323.8554	550.3527	-56.7178	350.7122	502.7256	-126.2255	417.0908	504.8581	-167.4101
1961	65.3333	323.5210	551.3063	-42.1027	330.0388	498.7809	-110.2208	392.3852	487.8118	-157.1119
1962	65.3667	334.7206	542.6639	-19.1972	321.2521	494.6413	-85.7795	369.4205	472.7504	-137.3856
1963	65.4000	357.2305	526.3335	-6.3776	346.7247	490.8260	-68.1417	381.4988	469.8528	-119.4872
1964	65.4333	382.0953	513.4916	-23.3943	396.9709	481.8031	-70.6546	440.2364	474.0639	-112.8712
1965	65.4667	401.0985	514.1516	-69.1802	444.8626	466.9330	-93.3351	522.2820	474.9910	-119.0548
1966	65.5000	415.6023	525.5612	-117.0193	473.7066	453.5719	-121.4159	587.8009	468.4265	-131.3230
1967	65.5333	431.3387	536.1065	-138.6102	485.8598	448.3672	-139.0836	615.2857	458.4999	-141.6957
1968	65.5667	448.8820	538.8005	-130.4279	491.2802	450.1966	-143.0516	615.7497	451.4928	-147.1598
1969	65.6000	464.2334	536.3213	-111.7180	496.2071	453.3293	-140.5116	613.5799	449.5197	-148.4718
1970	65.6333	475.4528	534.4946	-100.9581	501.6039	454.2290	-138.0478	621.1467	450.2292	-146.5738
1971	65.6667	484.4413	535.5660	-101.3359	506.5047	453.4418	-137.1929	634.3746	450.7243	-143.1414
1972	65.7000	493.6021	538.1916	-106.8185	510.2605	452.9632	-138.5022	644.9783	449.9899	-142.3474
1973	65.7333	503.2947	540.7337	-113.1232	512.8134	453.8114	-143.7788	649.7689	448.0380	-147.9553
1974	65.7667	512.3230	542.7486	-118.9957	514.6132	455.6540	-151.9889	649.9358	444.6265	-157.6687
1975	65.8000	519.7508	544.2580	-122.1902	516.6358	457.5151	-156.8994	647.2400	439.7378	-163.1792
1976	65.8333	525.9720	545.0659	-120.3679	519.7261	458.5925	-153.0969	643.0877	434.5697	-158.5240
1977	65.8667	532.1780	545.0415	-115.4105	523.5096	458.7646	-143.0893	639.1856	430.9637	-147.0517
1978	65.9000	538.9680	544.5048	-112.5661	526.5175	458.4862	-134.6399	636.9853	429.6781	-137.3271
1979	65.9333	545.8114	543.9875	-114.3206	527.9819	458.2076	-131.6403	636.5775	429.7260	-133.4353
1980	65.9667	551.9470	543.7165	-117.5275	529.0600	457.9978	-131.0394	637.0028	429.5762	-132.6946
1981	66.0000	557.3059	543.5124	-117.2026	531.4992	457.8199	-128.1372	637.5896	428.6632	-131.6862
1982	66.0333	562.1993	543.2024	-111.1443	535.3796	458.0572	-121.0298	638.3973	427.5726	-129.8182
1983	66.0667	566.6007	543.0058	-100.6680	539.0748	459.4542	-110.1361	639.4635	427.0797	-126.6784
1984	66.1000	570.4235	543.3729	-89.3353	541.4145	462.2654	-97.9233	640.3445	427.3392	-120.9126
1985	66.1333	574.3151	544.4209	-81.5729	543.0504	465.5704	-89.7017	640.6440	427.9489	-113.8286
1986	66.1667	579.3785	545.6874	-80.0005	545.3475	467.9139	-89.8757	640.5084	428.4844	-110.0851
1987	66.2000	585.8765	546.6040	-82.6028	548.4517	468.8311	-95.5696	640.2531	428.8002	-111.7059
1988	66.2333	592.6736	547.1015	-83.7136	551.0606	469.3383	-97.9601	639.8223	428.9269	-114.4054
1989	66.2667	598.2329	547.5301	-79.2937	551.9996	470.6377	-92.7127	638.9818	428.8958	-114.1731
1990	66.3000	601.9555	548.0825	-71.2032	551.4264	472.7271	-86.1961	637.8042	428.7455	-115.5221
1991	66.3333	604.3478	548.5847	-64.8998	550.3648	474.6250	-87.3246	636.5822	428.5985	-126.6240
1992	66.3667	606.0777	548.8471	-62.7191	549.5770	475.6159	-94.9093	635.4273	428.6026	-145.6664
1993	66.4000	607.3493	548.9442	-61.7723	549.1509	475.8480	-98.6542	634.2941	428.7797	-159.1220
1994	66.4333	608.3383	549.0565	-59.4055	548.8330	475.8876	-92.8833	633.2060	428.9967	-156.4592
1995	66.4667	609.6719	549.2159	-57.5896	548.4267	476.1168	-83.4969	632.0808	429.1086	-141.7657
1996	66.5000	611.9116	549.3252	-59.7315	547.9503	476.5764	-79.6815	630.5251	429.0930	-128.5101
1997	66.5333	614.7455	549.3307	-65.6118	547.6196	477.1002	-83.4868	628.2763	429.0272	-126.1081
1998	66.5667	617.1776	549.2670	-72.0868	547.7006	477.4991	-90.0475	625.8159	428.9690	-133.3272
1999	66.6000	618.5238	549.1579	-77.3727	548.2750	477.7068	-94.8268	624.1245	428.8943	-142.5115
2000	66.6333	618.9291	548.9384	-82.0500	549.0920	477.7435	-97.5363	623.6751	428.7419	-147.9091
2001	66.6667	618.9171	548.5014	-86.3926	549.6545	477.5276	-100.1924	623.8300	428.4981	-150.0160
2002	66.7000	618.7378	547.8340	-89.4240	549.5016	476.8835	-104.1045	623.3545	428.2293	-153.0140
2003	66.7333	618.3255	547.1027	-91.2483	548.5507	475.8424	-109.1196	621.5938	428.0233	-158.8648
2004	66.7667	617.7463	546.5606	-94.1839	547.3148	474.7783	-114.5896	619.2834	427.8835	-165.3202
2005	66.8000	617.3322	546.3284	-99.9272	546.7048	474.0689	-120.4014	618.1816	427.7021	-170.4656
2006	66.8333	616.9825	546.2451	-105.9468	547.2389	473.6939	-126.2121	619.3909	427.4178	-176.2095
2007	66.8667	615.2789	545.9145	-106.0767	548.1252	473.3207	-129.0847	621.4656	427.2255	-183.5206
2008	66.9000	610.1291	545.0186	-96.2990	547.4949	472.7688	-123.9168	620.8825	427.4437	-186.1812
2009	66.9333	601.6652	543.8263	-80.2231	544.6152	472.2519	-108.8423	616.5109	427.9295	-174.8570
2010	66.9667	594.4653	543.3286	-66.5384	542.1434	472.0777	-89.1493	614.0062	427.8085	-148.6507
2011	67.0000	593.9952	544.2900	-59.3641	544.0669	472.1177	-73.1182	621.2709	426.4901	-119.4707
2012	67.0333	597.6619	545.7981	-53.5248	548.6952	471.7293	-64.0143	634.0817	425.2795	-102.7307
2013	67.0667	591.1470	545.3782	-42.3247	544.9966	470.4820	-57.2463	629.0909	427.0515	-102.4064
2014	67.1000	560.0202	541.4912	-27.9792	521.2587	469.0079	-44.6816	582.1978	433.1309	-104.1166
2015	67.1333	507.5211	535.7069	-19.1658	479.6751	468.6724	-21.2777	498.5385	440.9528	-85.6057
2016	67.1667	455.4259	531.3039	-17.2889	438.1636	469.9110	11.4283	415.5461	446.1834	-38.2950
2017	67.2000	423.2325	529.5985	-11.5760	414.3638	471.1373	46.7314	369.3483	446.9237	22.1908
2018	67.2333	410.5418	528.6937	6.1204	410.1205	470.0449	75.7810	363.4064	444.6647	68.7930
2019	67.2667	403.1544	526.1452	26.0022	413.1470	466.2178	90.0222	373.8499	441.7867	84.8375
2020	67.3000	391.1388	521.9036	29.4620	410.4051	461.9148	86.0841	377.5318	439.7140	74.4204
2021	67.3333	375.6769	518.0582	12.9693	397.8615	459.8547	71.1074	368.7253	439.0639	55.9723
2022	67.3667	362.0220	516.3592	-6.9167	380.5841	460.5283	58.7696	354.7870	439.8076	46.3752
2023	67.4000	352.4864	516.7394	-13.5823	366.8200	462.1000	56.9580	344.2529	440.9907	48.9500
2024	67.4333	346.4145	517.8759	-6.4134	361.1969	462.7000	62.4347	339.4771	441.5307	55.8662
